<svg width="48" height="48" viewBox="0 0 48 48" fill="none" xmlns="http://www.w3.org/2000/svg">
<g id="pawprint 1" clip-path="url(#clip0_3_15)">
<path id="Vector" d="M31.9968 25.4391C29.8437 22.0696 26.1768 20.0576 22.1875 20.0576C18.1982 20.0576 14.5313 22.0696 12.3785 25.4391L7.19043 33.5583C6.32964 34.9053 5.93246 36.4617 6.04161 38.058C6.15076 39.6547 6.75638 41.1415 7.79277 42.3588C8.82988 43.5749 10.2003 44.4062 11.7558 44.7629C13.3113 45.1196 14.9058 44.9673 16.3667 44.3231L16.4646 44.2795C20.1406 42.6909 24.3413 42.7056 28.0079 44.3231C28.9537 44.7402 29.9558 44.9512 30.967 44.9512C31.5168 44.9512 32.0698 44.8885 32.6178 44.7633C34.1732 44.407 35.5436 43.5757 36.5811 42.3591C37.6179 41.1429 38.2239 39.6558 38.3334 38.0587C38.4429 36.4617 38.0457 34.9056 37.1849 33.558L31.9968 25.4391Z" fill="#111111"/>
<path id="Vector_2" d="M8.58784 25.4287C10.1313 24.834 11.3038 23.5863 11.8894 21.9153C12.4468 20.3252 12.4012 18.53 11.7605 16.8601C11.1195 15.1913 9.9535 13.829 8.47723 13.0237C6.92649 12.1781 5.22279 12.0404 3.68191 12.6362C0.581886 13.8319 -0.840721 17.6749 0.511066 21.2048C1.59089 24.0144 4.10938 25.7879 6.65562 25.7879C7.30578 25.7879 7.95776 25.6722 8.58784 25.4287Z" fill="#111111"/>
<path id="Vector_3" d="M18.6545 19.0675C22.5299 19.0675 25.6829 15.464 25.6829 11.0347C25.6829 6.60425 22.5299 3 18.6545 3C14.7795 3 11.6269 6.60425 11.6269 11.0347C11.6269 15.464 14.7795 19.0675 18.6545 19.0675Z" fill="#111111"/>
<path id="Vector_4" d="M30.7925 21.041H30.7929C31.389 21.2395 31.9972 21.3344 32.6028 21.3344C35.429 21.3344 38.1833 19.2708 39.2343 16.0994C39.8396 14.2738 39.7998 12.3435 39.1223 10.6645C38.4133 8.90665 37.0995 7.63077 35.4225 7.07157C33.745 6.51237 31.9311 6.74564 30.3143 7.72782C28.7697 8.66605 27.5862 10.1884 26.9817 12.014C25.7059 15.865 27.4154 19.9146 30.7925 21.041Z" fill="#111111"/>
<path id="Vector_5" d="M45.5935 20.1036L45.5924 20.1025C42.9199 18.122 38.9229 18.9804 36.6819 22.017C34.443 25.0551 34.7931 29.1395 37.4616 31.1214C38.4349 31.8447 39.5848 32.1904 40.7617 32.1904C42.8129 32.1904 44.947 31.1401 46.3736 29.2087C48.6121 26.1706 48.2624 22.0863 45.5935 20.1036Z" fill="#111111"/>
</g>
<defs>
<clipPath id="clip0_3_15">
<rect width="47.8481" height="48" fill="white"/>
</clipPath>
</defs>
</svg>
